<svg height="800" width="800" version="1.1" id="_x32_" xmlns="http://www.w3.org/2000/svg" viewBox="-51.2 -51.2 614.4 614.4" xml:space="preserve" fill="#5bea3e" stroke="#5bea3e"><rect x="-51.2" y="-51.2" width="614.4" height="614.4" rx="0" fill="#f4f5e0" id="SVGRepo_bgCarrier" stroke-width="0"/><g id="SVGRepo_iconCarrier"><style>.st0{fill:#26b529}</style><path class="st0" d="M500.177 55.798s-21.735-7.434-39.551-11.967C411.686 31.369 308.824 24.727 256 24.727S100.314 31.369 51.374 43.831c-17.816 4.534-39.551 11.967-39.551 11.967A16.631 16.631 0 0 0 .063 73.172l8.507 97.835c.757 8.596 7.957 15.201 16.581 15.201h84.787c8.506 0 15.643-6.416 16.553-14.878l4.28-39.973c.847-7.93 7.2-14.138 15.148-14.815 0 0 68.484-6.182 110.081-6.182 41.586 0 110.08 6.182 110.08 6.182 7.949.676 14.302 6.885 15.148 14.815l4.29 39.973c.9 8.462 8.038 14.878 16.545 14.878h84.777c8.632 0 15.832-6.605 16.589-15.201l8.507-97.835a16.628 16.628 0 0 0-11.759-17.374z"/><path class="st0" d="M357.503 136.629h-55.365v46.137h-92.275v-46.137h-55.365S145.27 256.586 34.541 344.247v129.95c0 7.218 5.857 13.076 13.075 13.076h416.768c7.218 0 13.076-5.858 13.076-13.076v-129.95c-110.73-87.661-119.957-207.618-119.957-207.618zM338.768 391.42v37.406h-37.396V391.42h37.396zm0-59.15v37.406h-37.396V332.27h37.396zm-37.396-21.752v-37.396h37.396v37.396h-37.396zm-26.674 80.902v37.406h-37.396V391.42h37.396zm0-59.15v37.406h-37.396V332.27h37.396zm0-59.148v37.396h-37.396v-37.396h37.396zM210.629 391.42v37.406h-37.397V391.42h37.397zm0-59.15v37.406h-37.397V332.27h37.397zm0-59.148v37.396h-37.397v-37.396h37.397z"/></g></svg>